<svg xmlns="http://www.w3.org/2000/svg" width="55" height="21" viewBox="0 0 55 21">
  <metadata><?xpacket begin="﻿" id="W5M0MpCehiHzreSzNTczkc9d"?>
<x:xmpmeta xmlns:x="adobe:ns:meta/" x:xmptk="Adobe XMP Core 5.6-c138 79.159824, 2016/09/14-01:09:01        ">
   <rdf:RDF xmlns:rdf="http://www.w3.org/1999/02/22-rdf-syntax-ns#">
      <rdf:Description rdf:about=""/>
   </rdf:RDF>
</x:xmpmeta>
                                                                                                    
                                                                                                    
                                                                                                    
                                                                                                    
                                                                                                    
                                                                                                    
                                                                                                    
                                                                                                    
                                                                                                    
                                                                                                    
                                                                                                    
                                                                                                    
                                                                                                    
                                                                                                    
                                                                                                    
                                                                                                    
                                                                                                    
                                                                                                    
                                                                                                    
                                                                                                    
                           
<?xpacket end="w"?></metadata>
<defs>
    <style>
      .cls-1 {
        fill: #aaa;
        stroke: #000;
        stroke-linejoin: round;
        stroke-opacity: 0;
        stroke-width: 1px;
      }

      .cls-1, .cls-2, .cls-3 {
        fill-rule: evenodd;
      }

      .cls-2 {
        fill: #333;
      }

      .cls-3 {
        fill: #999;
      }
    </style>
  </defs>
  <path id="Tick" class="cls-1" d="M52.583,6.932l-5.924,5.883L45.037,11.4l0.006-.006-1.71-1.544,1.414-1.58,1.919,1.877,4.712-4.879Z"/>
  <path class="cls-2" d="M10.12,3.106a3.685,3.685,0,0,0-.853,3.873L1.775,14.472l0.544,1.283,2.128-.078,0.78-1.522,1.487-.405,0.372-2.061L8.9,11.382,11.21,9.073A3.688,3.688,0,1,0,10.12,3.106Zm0.009,4.727L2.974,14.987a0.252,0.252,0,1,1-.357-0.357L9.771,7.477A0.252,0.252,0,0,1,10.128,7.833ZM14.4,5.276a0.869,0.869,0,1,1,0-1.229A0.869,0.869,0,0,1,14.4,5.276Z"/>
  <path id="User_Icon" data-name="User Icon" class="cls-3" d="M25.534,7.353a0.56,0.56,0,0,0,.543.575h0.009c0.112,1.517,1.308,3.036,2.768,3.036s2.655-1.518,2.767-3.036h0.01a0.56,0.56,0,0,0,.543-0.575,0.577,0.577,0,0,0-.321-0.526,3.539,3.539,0,0,0,.17-1.086,3.174,3.174,0,1,0-6.336,0,3.545,3.545,0,0,0,.17,1.086A0.577,0.577,0,0,0,25.534,7.353ZM35.79,14.475a10.083,10.083,0,0,0-4.571-2.566,0.294,0.294,0,0,0-.141-0.036H30.923a0.3,0.3,0,0,0-.139.035,4.518,4.518,0,0,1-3.86,0,0.3,0.3,0,0,0-.139-0.035H26.672a0.307,0.307,0,0,0-.068.008,10.074,10.074,0,0,0-4.687,2.6,0.294,0.294,0,0,0-.09.211v1.055a0.3,0.3,0,0,0,.3.3H35.585a0.3,0.3,0,0,0,.3-0.3V14.686A0.294,0.294,0,0,0,35.79,14.475Z"/>
</svg>
